<?xml version="1.0" encoding="UTF-8"?>
<svg width="18px" height="18px" viewBox="0 0 18 18" version="1.1" xmlns="http://www.w3.org/2000/svg" xmlns:xlink="http://www.w3.org/1999/xlink">
    <!-- Generator: Sketch 57.1 (83088) - https://sketch.com -->
    <title>Icone_Referentiel</title>
    <desc>Created with Sketch.</desc>
    <g id="Welcome" stroke="none" stroke-width="1" fill="none" fill-rule="evenodd">
        <g id="Ecran_Ref_1_Hover" transform="translate(-36.000000, -162.000000)" fill="#000000">
            <g id="Navigation" transform="translate(0.000000, 65.000000)">
                <g id="Icone_Referentiel" transform="translate(36.000000, 97.000000)">
                    <path d="M2,16 L16,16 L16,2 L2,2 L2,16 Z M17,0 L1,0 C0.45,0 0,0.45 0,1 L0,17 C0,17.55 0.45,18 1,18 L17,18 C17.55,18 18,17.55 18,17 L18,1 C18,0.45 17.55,0 17,0 L17,0 Z M4,14 L6,14 L6,12 L4,12 L4,14 Z M4,10 L6,10 L6,8 L4,8 L4,10 Z M4,6 L6,6 L6,4 L4,4 L4,6 Z M9,14 L13,14 C13.55,14 14,13.55 14,13 C14,12.45 13.55,12 13,12 L9,12 C8.45,12 8,12.45 8,13 C8,13.55 8.45,14 9,14 L9,14 Z M9,10 L13,10 C13.55,10 14,9.55 14,9 C14,8.45 13.55,8 13,8 L9,8 C8.45,8 8,8.45 8,9 C8,9.55 8.45,10 9,10 L9,10 Z M9,6 L13,6 C13.55,6 14,5.55 14,5 C14,4.45 13.55,4 13,4 L9,4 C8.45,4 8,4.45 8,5 C8,5.55 8.45,6 9,6 L9,6 Z" id="Fill-1"></path>
                </g>
            </g>
        </g>
    </g>
</svg>