<?xml version="1.0" encoding="UTF-8"?>
<svg width="19px" height="17px" viewBox="0 0 19 17" version="1.1" xmlns="http://www.w3.org/2000/svg" xmlns:xlink="http://www.w3.org/1999/xlink">
    <!-- Generator: Sketch 57.1 (83088) - https://sketch.com -->
    <title>Icone_Home</title>
    <desc>Created with Sketch.</desc>
    <g id="Symbols" stroke="none" stroke-width="1" fill="none" fill-rule="evenodd">
        <g id="Main-Menu" transform="translate(-55.000000, -89.000000)" fill="#000000">
            <g id="Group" transform="translate(55.000000, 88.000000)">
                <g id="Icone_Home" transform="translate(-0.000000, 1.000000)">
                    <path d="M7.19785197,15.655 L7.19785197,10.655 L11.197852,10.655 L11.197852,15.655 C11.197852,16.205 11.647852,16.655 12.197852,16.655 L15.197852,16.655 C15.747852,16.655 16.197852,16.205 16.197852,15.655 L16.197852,8.655 L17.897852,8.655 C18.357852,8.655 18.577852,8.085 18.227852,7.785 L9.86785197,0.255 C9.48785197,-0.085 8.90785197,-0.085 8.52785197,0.255 L0.167851974,7.785 C-0.172148026,8.085 0.0378519742,8.655 0.497851974,8.655 L2.19785197,8.655 L2.19785197,15.655 C2.19785197,16.205 2.64785197,16.655 3.19785197,16.655 L6.19785197,16.655 C6.74785197,16.655 7.19785197,16.205 7.19785197,15.655" id="Fill-1"></path>
                </g>
            </g>
        </g>
    </g>
</svg>